%TF.GenerationSoftware,KiCad,Pcbnew,9.0.3*%
%TF.CreationDate,2025-11-23T12:23:13-05:00*%
%TF.ProjectId,Caretaker,43617265-7461-46b6-9572-2e6b69636164,rev?*%
%TF.SameCoordinates,Original*%
%TF.FileFunction,Soldermask,Top*%
%TF.FilePolarity,Negative*%
%FSLAX46Y46*%
G04 Gerber Fmt 4.6, Leading zero omitted, Abs format (unit mm)*
G04 Created by KiCad (PCBNEW 9.0.3) date 2025-11-23 12:23:13*
%MOMM*%
%LPD*%
G01*
G04 APERTURE LIST*
G04 Aperture macros list*
%AMRoundRect*
0 Rectangle with rounded corners*
0 $1 Rounding radius*
0 $2 $3 $4 $5 $6 $7 $8 $9 X,Y pos of 4 corners*
0 Add a 4 corners polygon primitive as box body*
4,1,4,$2,$3,$4,$5,$6,$7,$8,$9,$2,$3,0*
0 Add four circle primitives for the rounded corners*
1,1,$1+$1,$2,$3*
1,1,$1+$1,$4,$5*
1,1,$1+$1,$6,$7*
1,1,$1+$1,$8,$9*
0 Add four rect primitives between the rounded corners*
20,1,$1+$1,$2,$3,$4,$5,0*
20,1,$1+$1,$4,$5,$6,$7,0*
20,1,$1+$1,$6,$7,$8,$9,0*
20,1,$1+$1,$8,$9,$2,$3,0*%
%AMFreePoly0*
4,1,23,0.500000,-0.750000,0.000000,-0.750000,0.000000,-0.745722,-0.065263,-0.745722,-0.191342,-0.711940,-0.304381,-0.646677,-0.396677,-0.554381,-0.461940,-0.441342,-0.495722,-0.315263,-0.495722,-0.250000,-0.500000,-0.250000,-0.500000,0.250000,-0.495722,0.250000,-0.495722,0.315263,-0.461940,0.441342,-0.396677,0.554381,-0.304381,0.646677,-0.191342,0.711940,-0.065263,0.745722,0.000000,0.745722,
0.000000,0.750000,0.500000,0.750000,0.500000,-0.750000,0.500000,-0.750000,$1*%
%AMFreePoly1*
4,1,23,0.000000,0.745722,0.065263,0.745722,0.191342,0.711940,0.304381,0.646677,0.396677,0.554381,0.461940,0.441342,0.495722,0.315263,0.495722,0.250000,0.500000,0.250000,0.500000,-0.250000,0.495722,-0.250000,0.495722,-0.315263,0.461940,-0.441342,0.396677,-0.554381,0.304381,-0.646677,0.191342,-0.711940,0.065263,-0.745722,0.000000,-0.745722,0.000000,-0.750000,-0.500000,-0.750000,
-0.500000,0.750000,0.000000,0.750000,0.000000,0.745722,0.000000,0.745722,$1*%
G04 Aperture macros list end*
%ADD10R,1.000000X1.000000*%
%ADD11C,2.700000*%
%ADD12R,1.500000X1.050000*%
%ADD13O,1.500000X1.050000*%
%ADD14C,1.400000*%
%ADD15RoundRect,0.102000X-0.754000X-0.754000X0.754000X-0.754000X0.754000X0.754000X-0.754000X0.754000X0*%
%ADD16C,1.712000*%
%ADD17RoundRect,0.250001X-1.149999X1.149999X-1.149999X-1.149999X1.149999X-1.149999X1.149999X1.149999X0*%
%ADD18C,2.800000*%
%ADD19R,1.700000X1.700000*%
%ADD20C,1.700000*%
%ADD21R,1.800000X1.800000*%
%ADD22C,1.800000*%
%ADD23RoundRect,0.250001X-1.149999X-1.149999X1.149999X-1.149999X1.149999X1.149999X-1.149999X1.149999X0*%
%ADD24C,1.600000*%
%ADD25R,2.000000X2.000000*%
%ADD26C,2.000000*%
%ADD27C,1.651000*%
%ADD28RoundRect,0.102000X-0.762000X-0.762000X0.762000X-0.762000X0.762000X0.762000X-0.762000X0.762000X0*%
%ADD29C,1.728000*%
%ADD30FreePoly0,0.000000*%
%ADD31FreePoly1,0.000000*%
G04 APERTURE END LIST*
%TO.C,JP1*%
G36*
X127747971Y-129018600D02*
G01*
X128047971Y-129018600D01*
X128047971Y-130518600D01*
X127747971Y-130518600D01*
X127747971Y-129018600D01*
G37*
%TD*%
D10*
%TO.C,TP31*%
X167227571Y-126644400D03*
%TD*%
%TO.C,TP30*%
X159429771Y-84480400D03*
%TD*%
D11*
%TO.C,H1*%
X99311971Y-65704600D03*
%TD*%
D10*
%TO.C,TP17*%
X155631971Y-70434600D03*
%TD*%
%TO.C,TP24*%
X134281971Y-70287933D03*
%TD*%
%TO.C,TP14*%
X155631971Y-72954600D03*
%TD*%
D12*
%TO.C,Q4*%
X101521971Y-107704600D03*
D13*
X101521971Y-106434600D03*
X101521971Y-105164600D03*
%TD*%
D14*
%TO.C,R1*%
X116071971Y-70840600D03*
X116071971Y-75920600D03*
%TD*%
D10*
%TO.C,TP16*%
X155631971Y-77994600D03*
%TD*%
D15*
%TO.C,S1*%
X124591971Y-63984600D03*
D16*
X131091971Y-63984600D03*
X124591971Y-68484600D03*
X131091971Y-68484600D03*
%TD*%
D10*
%TO.C,TP12*%
X162991971Y-92914600D03*
%TD*%
D17*
%TO.C,D3*%
X101339971Y-112978650D03*
D18*
X101339971Y-118058650D03*
%TD*%
D19*
%TO.C,J2*%
X152561971Y-67984600D03*
D20*
X152561971Y-70524600D03*
X152561971Y-73064600D03*
X152561971Y-75604600D03*
X152561971Y-78144600D03*
X152561971Y-80684600D03*
X152561971Y-83224600D03*
%TD*%
D10*
%TO.C,TP9*%
X97791971Y-129004600D03*
%TD*%
D19*
%TO.C,J16*%
X119111971Y-71824600D03*
D20*
X119111971Y-74364600D03*
X119111971Y-76904600D03*
X119111971Y-79444600D03*
X119111971Y-81984600D03*
X119111971Y-84524600D03*
X119111971Y-87064600D03*
X119111971Y-89604600D03*
%TD*%
D10*
%TO.C,TP19*%
X134491971Y-83594600D03*
%TD*%
D19*
%TO.C,J17*%
X105541971Y-64614600D03*
D20*
X108081971Y-64614600D03*
X110621971Y-64614600D03*
X113161971Y-64614600D03*
%TD*%
D10*
%TO.C,TP3*%
X116161971Y-88328600D03*
%TD*%
%TO.C,TP20*%
X134391971Y-80941267D03*
%TD*%
%TO.C,TP23*%
X134281971Y-72951267D03*
%TD*%
%TO.C,TP18*%
X155631971Y-67914600D03*
%TD*%
%TO.C,TP28*%
X136645971Y-63982600D03*
%TD*%
D21*
%TO.C,D1*%
X118561971Y-66114600D03*
D22*
X121101971Y-66114600D03*
%TD*%
D19*
%TO.C,J1*%
X137311971Y-83216600D03*
D20*
X137311971Y-80676600D03*
X137311971Y-78136600D03*
X137311971Y-75596600D03*
X137311971Y-73056600D03*
X137311971Y-70516600D03*
X137311971Y-67976600D03*
%TD*%
D10*
%TO.C,TP27*%
X155641971Y-83554600D03*
%TD*%
%TO.C,TP25*%
X134281971Y-67624600D03*
%TD*%
D14*
%TO.C,R2*%
X135375971Y-87502600D03*
X137915971Y-87502600D03*
%TD*%
%TO.C,R3*%
X135375971Y-90652600D03*
X137915971Y-90652600D03*
%TD*%
D10*
%TO.C,TP6*%
X116161971Y-80690600D03*
%TD*%
%TO.C,TP15*%
X155631971Y-75474600D03*
%TD*%
%TO.C,TP43*%
X133089971Y-87477600D03*
%TD*%
%TO.C,TP21*%
X134281971Y-78277933D03*
%TD*%
%TO.C,TP22*%
X134281971Y-75614600D03*
%TD*%
%TO.C,TP4*%
X116161971Y-90874600D03*
%TD*%
%TO.C,TP1*%
X116161971Y-83236600D03*
%TD*%
%TO.C,TP2*%
X116161971Y-85782600D03*
%TD*%
%TO.C,TP11*%
X115321971Y-67984600D03*
%TD*%
D23*
%TO.C,J4*%
X102711971Y-125704600D03*
D18*
X107711971Y-125704600D03*
%TD*%
D24*
%TO.C,C2*%
X106061971Y-115504600D03*
X108561971Y-115504600D03*
%TD*%
D10*
%TO.C,TP26*%
X134613971Y-63982600D03*
%TD*%
%TO.C,TP5*%
X116161971Y-78144600D03*
%TD*%
%TO.C,TP7*%
X122631971Y-71914600D03*
%TD*%
D12*
%TO.C,Q2*%
X106711971Y-105164600D03*
D13*
X106711971Y-106434600D03*
X106711971Y-107704600D03*
%TD*%
D19*
%TO.C,J5*%
X159545757Y-80400386D03*
D20*
X159545757Y-77860386D03*
X159545757Y-75320386D03*
X159545757Y-72780386D03*
%TD*%
D10*
%TO.C,TP29*%
X156965971Y-129260600D03*
%TD*%
%TO.C,TP37*%
X141598971Y-129387600D03*
%TD*%
D25*
%TO.C,BZ1*%
X117741971Y-104314600D03*
D26*
X117741971Y-96714600D03*
%TD*%
D12*
%TO.C,Q1*%
X175101971Y-105784600D03*
D13*
X175101971Y-107054600D03*
X175101971Y-108324600D03*
%TD*%
D17*
%TO.C,D2*%
X178075971Y-113258600D03*
D18*
X178075971Y-118338600D03*
%TD*%
D12*
%TO.C,Q3*%
X170501971Y-108264600D03*
D13*
X170501971Y-106994600D03*
X170501971Y-105724600D03*
%TD*%
D27*
%TO.C,U1*%
X123791971Y-110684600D03*
X123791971Y-125924600D03*
X164431971Y-110684600D03*
X164431971Y-125924600D03*
D28*
X126331971Y-125924600D03*
D29*
X128871971Y-125924600D03*
X131411971Y-125924600D03*
X133951971Y-125924600D03*
X136491971Y-125924600D03*
X139031971Y-125924600D03*
X141571971Y-125924600D03*
X144111971Y-125924600D03*
X146651971Y-125924600D03*
X149191971Y-125924600D03*
X151731971Y-125924600D03*
X154271971Y-125924600D03*
X156811971Y-125924600D03*
X159351971Y-125924600D03*
X161891971Y-125924600D03*
X161891971Y-110684600D03*
X159351971Y-110684600D03*
X156811971Y-110684600D03*
X154271971Y-110684600D03*
X151731971Y-110684600D03*
X149191971Y-110684600D03*
X146651971Y-110684600D03*
X144111971Y-110684600D03*
X141571971Y-110684600D03*
X139031971Y-110684600D03*
X136491971Y-110684600D03*
X133951971Y-110684600D03*
X131411971Y-110684600D03*
X128871971Y-110684600D03*
X126331971Y-110684600D03*
%TD*%
D10*
%TO.C,TP36*%
X149218971Y-129260600D03*
%TD*%
%TO.C,TP13*%
X120516971Y-113131600D03*
%TD*%
%TO.C,TP39*%
X136518971Y-129387600D03*
%TD*%
%TO.C,TP34*%
X159251971Y-107924600D03*
%TD*%
D19*
%TO.C,J9*%
X156111971Y-96224600D03*
D20*
X156111971Y-98764600D03*
X156111971Y-101304600D03*
%TD*%
D10*
%TO.C,TP40*%
X133978971Y-129387600D03*
%TD*%
D23*
%TO.C,J3*%
X182911971Y-125704600D03*
D18*
X187911971Y-125704600D03*
%TD*%
D19*
%TO.C,J10*%
X159911971Y-103844600D03*
D20*
X159911971Y-101304600D03*
X159911971Y-98764600D03*
X159911971Y-96224600D03*
X159911971Y-93684600D03*
%TD*%
D10*
%TO.C,TP41*%
X131438971Y-129387600D03*
%TD*%
%TO.C,TP35*%
X151758971Y-129260600D03*
%TD*%
%TO.C,TP33*%
X161791971Y-107924600D03*
%TD*%
%TO.C,TP8*%
X192731971Y-128824600D03*
%TD*%
D24*
%TO.C,C1*%
X170554971Y-116052600D03*
X170554971Y-118552600D03*
%TD*%
D19*
%TO.C,J8*%
X152111971Y-96224600D03*
D20*
X152111971Y-98764600D03*
X152111971Y-101304600D03*
%TD*%
D11*
%TO.C,H2*%
X144111971Y-97304600D03*
%TD*%
D19*
%TO.C,J6*%
X133111971Y-101304600D03*
D20*
X133111971Y-98764600D03*
X133111971Y-96224600D03*
%TD*%
D19*
%TO.C,J15*%
X117931971Y-125699600D03*
D20*
X117931971Y-128239600D03*
%TD*%
D10*
%TO.C,TP42*%
X120643971Y-110845600D03*
%TD*%
D30*
%TO.C,JP1*%
X127247971Y-129768600D03*
D31*
X128547971Y-129768600D03*
%TD*%
D19*
%TO.C,J12*%
X170111971Y-124510800D03*
D20*
X170111971Y-127050800D03*
%TD*%
D19*
%TO.C,J7*%
X137111971Y-101304600D03*
D20*
X137111971Y-98764600D03*
X137111971Y-96224600D03*
%TD*%
D10*
%TO.C,TP10*%
X117171971Y-109294600D03*
%TD*%
%TO.C,TP38*%
X139058971Y-129387600D03*
%TD*%
D19*
%TO.C,J14*%
X113531971Y-125699600D03*
D20*
X113531971Y-128239600D03*
%TD*%
D19*
%TO.C,J11*%
X129111971Y-93684600D03*
D20*
X129111971Y-96224600D03*
X129111971Y-98764600D03*
X129111971Y-101304600D03*
X129111971Y-103844600D03*
%TD*%
D19*
%TO.C,J13*%
X174911971Y-124462100D03*
D20*
X174911971Y-127002100D03*
%TD*%
M02*
