%TF.GenerationSoftware,KiCad,Pcbnew,9.0.3*%
%TF.CreationDate,2025-11-23T12:23:13-05:00*%
%TF.ProjectId,Caretaker,43617265-7461-46b6-9572-2e6b69636164,rev?*%
%TF.SameCoordinates,Original*%
%TF.FileFunction,Soldermask,Bot*%
%TF.FilePolarity,Negative*%
%FSLAX46Y46*%
G04 Gerber Fmt 4.6, Leading zero omitted, Abs format (unit mm)*
G04 Created by KiCad (PCBNEW 9.0.3) date 2025-11-23 12:23:13*
%MOMM*%
%LPD*%
G01*
G04 APERTURE LIST*
G04 Aperture macros list*
%AMRoundRect*
0 Rectangle with rounded corners*
0 $1 Rounding radius*
0 $2 $3 $4 $5 $6 $7 $8 $9 X,Y pos of 4 corners*
0 Add a 4 corners polygon primitive as box body*
4,1,4,$2,$3,$4,$5,$6,$7,$8,$9,$2,$3,0*
0 Add four circle primitives for the rounded corners*
1,1,$1+$1,$2,$3*
1,1,$1+$1,$4,$5*
1,1,$1+$1,$6,$7*
1,1,$1+$1,$8,$9*
0 Add four rect primitives between the rounded corners*
20,1,$1+$1,$2,$3,$4,$5,0*
20,1,$1+$1,$4,$5,$6,$7,0*
20,1,$1+$1,$6,$7,$8,$9,0*
20,1,$1+$1,$8,$9,$2,$3,0*%
G04 Aperture macros list end*
%ADD10C,2.700000*%
%ADD11R,1.500000X1.050000*%
%ADD12O,1.500000X1.050000*%
%ADD13C,1.400000*%
%ADD14RoundRect,0.102000X-0.754000X-0.754000X0.754000X-0.754000X0.754000X0.754000X-0.754000X0.754000X0*%
%ADD15C,1.712000*%
%ADD16RoundRect,0.250001X-1.149999X1.149999X-1.149999X-1.149999X1.149999X-1.149999X1.149999X1.149999X0*%
%ADD17C,2.800000*%
%ADD18R,1.700000X1.700000*%
%ADD19C,1.700000*%
%ADD20R,1.800000X1.800000*%
%ADD21C,1.800000*%
%ADD22RoundRect,0.250001X-1.149999X-1.149999X1.149999X-1.149999X1.149999X1.149999X-1.149999X1.149999X0*%
%ADD23C,1.600000*%
%ADD24R,2.000000X2.000000*%
%ADD25C,2.000000*%
%ADD26C,1.651000*%
%ADD27RoundRect,0.102000X-0.762000X-0.762000X0.762000X-0.762000X0.762000X0.762000X-0.762000X0.762000X0*%
%ADD28C,1.728000*%
G04 APERTURE END LIST*
D10*
%TO.C,H1*%
X99311971Y-65704600D03*
%TD*%
D11*
%TO.C,Q4*%
X101521971Y-107704600D03*
D12*
X101521971Y-106434600D03*
X101521971Y-105164600D03*
%TD*%
D13*
%TO.C,R1*%
X116071971Y-70840600D03*
X116071971Y-75920600D03*
%TD*%
D14*
%TO.C,S1*%
X124591971Y-63984600D03*
D15*
X131091971Y-63984600D03*
X124591971Y-68484600D03*
X131091971Y-68484600D03*
%TD*%
D16*
%TO.C,D3*%
X101339971Y-112978650D03*
D17*
X101339971Y-118058650D03*
%TD*%
D18*
%TO.C,J2*%
X152561971Y-67984600D03*
D19*
X152561971Y-70524600D03*
X152561971Y-73064600D03*
X152561971Y-75604600D03*
X152561971Y-78144600D03*
X152561971Y-80684600D03*
X152561971Y-83224600D03*
%TD*%
D18*
%TO.C,J16*%
X119111971Y-71824600D03*
D19*
X119111971Y-74364600D03*
X119111971Y-76904600D03*
X119111971Y-79444600D03*
X119111971Y-81984600D03*
X119111971Y-84524600D03*
X119111971Y-87064600D03*
X119111971Y-89604600D03*
%TD*%
D18*
%TO.C,J17*%
X105541971Y-64614600D03*
D19*
X108081971Y-64614600D03*
X110621971Y-64614600D03*
X113161971Y-64614600D03*
%TD*%
D20*
%TO.C,D1*%
X118561971Y-66114600D03*
D21*
X121101971Y-66114600D03*
%TD*%
D18*
%TO.C,J1*%
X137311971Y-83216600D03*
D19*
X137311971Y-80676600D03*
X137311971Y-78136600D03*
X137311971Y-75596600D03*
X137311971Y-73056600D03*
X137311971Y-70516600D03*
X137311971Y-67976600D03*
%TD*%
D13*
%TO.C,R2*%
X135375971Y-87502600D03*
X137915971Y-87502600D03*
%TD*%
%TO.C,R3*%
X135375971Y-90652600D03*
X137915971Y-90652600D03*
%TD*%
D22*
%TO.C,J4*%
X102711971Y-125704600D03*
D17*
X107711971Y-125704600D03*
%TD*%
D23*
%TO.C,C2*%
X106061971Y-115504600D03*
X108561971Y-115504600D03*
%TD*%
D11*
%TO.C,Q2*%
X106711971Y-105164600D03*
D12*
X106711971Y-106434600D03*
X106711971Y-107704600D03*
%TD*%
D18*
%TO.C,J5*%
X159545757Y-80400386D03*
D19*
X159545757Y-77860386D03*
X159545757Y-75320386D03*
X159545757Y-72780386D03*
%TD*%
D24*
%TO.C,BZ1*%
X117741971Y-104314600D03*
D25*
X117741971Y-96714600D03*
%TD*%
D11*
%TO.C,Q1*%
X175101971Y-105784600D03*
D12*
X175101971Y-107054600D03*
X175101971Y-108324600D03*
%TD*%
D16*
%TO.C,D2*%
X178075971Y-113258600D03*
D17*
X178075971Y-118338600D03*
%TD*%
D11*
%TO.C,Q3*%
X170501971Y-108264600D03*
D12*
X170501971Y-106994600D03*
X170501971Y-105724600D03*
%TD*%
D26*
%TO.C,U1*%
X123791971Y-110684600D03*
X123791971Y-125924600D03*
X164431971Y-110684600D03*
X164431971Y-125924600D03*
D27*
X126331971Y-125924600D03*
D28*
X128871971Y-125924600D03*
X131411971Y-125924600D03*
X133951971Y-125924600D03*
X136491971Y-125924600D03*
X139031971Y-125924600D03*
X141571971Y-125924600D03*
X144111971Y-125924600D03*
X146651971Y-125924600D03*
X149191971Y-125924600D03*
X151731971Y-125924600D03*
X154271971Y-125924600D03*
X156811971Y-125924600D03*
X159351971Y-125924600D03*
X161891971Y-125924600D03*
X161891971Y-110684600D03*
X159351971Y-110684600D03*
X156811971Y-110684600D03*
X154271971Y-110684600D03*
X151731971Y-110684600D03*
X149191971Y-110684600D03*
X146651971Y-110684600D03*
X144111971Y-110684600D03*
X141571971Y-110684600D03*
X139031971Y-110684600D03*
X136491971Y-110684600D03*
X133951971Y-110684600D03*
X131411971Y-110684600D03*
X128871971Y-110684600D03*
X126331971Y-110684600D03*
%TD*%
D18*
%TO.C,J9*%
X156111971Y-96224600D03*
D19*
X156111971Y-98764600D03*
X156111971Y-101304600D03*
%TD*%
D22*
%TO.C,J3*%
X182911971Y-125704600D03*
D17*
X187911971Y-125704600D03*
%TD*%
D18*
%TO.C,J10*%
X159911971Y-103844600D03*
D19*
X159911971Y-101304600D03*
X159911971Y-98764600D03*
X159911971Y-96224600D03*
X159911971Y-93684600D03*
%TD*%
D23*
%TO.C,C1*%
X170554971Y-116052600D03*
X170554971Y-118552600D03*
%TD*%
D18*
%TO.C,J8*%
X152111971Y-96224600D03*
D19*
X152111971Y-98764600D03*
X152111971Y-101304600D03*
%TD*%
D10*
%TO.C,H2*%
X144111971Y-97304600D03*
%TD*%
D18*
%TO.C,J6*%
X133111971Y-101304600D03*
D19*
X133111971Y-98764600D03*
X133111971Y-96224600D03*
%TD*%
D18*
%TO.C,J15*%
X117931971Y-125699600D03*
D19*
X117931971Y-128239600D03*
%TD*%
D18*
%TO.C,J12*%
X170111971Y-124510800D03*
D19*
X170111971Y-127050800D03*
%TD*%
D18*
%TO.C,J7*%
X137111971Y-101304600D03*
D19*
X137111971Y-98764600D03*
X137111971Y-96224600D03*
%TD*%
D18*
%TO.C,J14*%
X113531971Y-125699600D03*
D19*
X113531971Y-128239600D03*
%TD*%
D18*
%TO.C,J11*%
X129111971Y-93684600D03*
D19*
X129111971Y-96224600D03*
X129111971Y-98764600D03*
X129111971Y-101304600D03*
X129111971Y-103844600D03*
%TD*%
D18*
%TO.C,J13*%
X174911971Y-124462100D03*
D19*
X174911971Y-127002100D03*
%TD*%
M02*
